<mxfile host="app.diagrams.net" agent="Mozilla/5.0 (Macintosh; Intel Mac OS X 10_15_7) AppleWebKit/605.1.15 (KHTML, like Gecko) Version/18.0 Safari/605.1.15" version="24.7.15">
  <diagram name="Pagina-1" id="4BppFEph6h3aHcuzolTh">
    <mxGraphModel dx="1816" dy="554" grid="1" gridSize="10" guides="1" tooltips="1" connect="1" arrows="1" fold="1" page="1" pageScale="1" pageWidth="827" pageHeight="1169" math="0" shadow="0">
      <root>
        <mxCell id="0" />
        <mxCell id="1" parent="0" />
        <mxCell id="f3nVC-9VJCg3BrWqSY1o-7" style="rounded=0;orthogonalLoop=1;jettySize=auto;html=1;exitX=0;exitY=0;exitDx=0;exitDy=0;entryX=1;entryY=0.5;entryDx=0;entryDy=0;" edge="1" parent="1" source="f3nVC-9VJCg3BrWqSY1o-2" target="f3nVC-9VJCg3BrWqSY1o-5">
          <mxGeometry relative="1" as="geometry" />
        </mxCell>
        <mxCell id="f3nVC-9VJCg3BrWqSY1o-17" style="rounded=0;orthogonalLoop=1;jettySize=auto;html=1;exitX=1;exitY=0;exitDx=0;exitDy=0;" edge="1" parent="1" source="f3nVC-9VJCg3BrWqSY1o-2" target="f3nVC-9VJCg3BrWqSY1o-15">
          <mxGeometry relative="1" as="geometry" />
        </mxCell>
        <mxCell id="f3nVC-9VJCg3BrWqSY1o-64" style="edgeStyle=orthogonalEdgeStyle;rounded=0;orthogonalLoop=1;jettySize=auto;html=1;exitX=1;exitY=0.5;exitDx=0;exitDy=0;" edge="1" parent="1" source="f3nVC-9VJCg3BrWqSY1o-2">
          <mxGeometry relative="1" as="geometry">
            <mxPoint x="230" y="99.79310344827593" as="targetPoint" />
          </mxGeometry>
        </mxCell>
        <mxCell id="f3nVC-9VJCg3BrWqSY1o-2" value="Treni" style="rounded=1;arcSize=10;whiteSpace=wrap;html=1;align=center;" vertex="1" parent="1">
          <mxGeometry x="90" y="80" width="100" height="40" as="geometry" />
        </mxCell>
        <mxCell id="f3nVC-9VJCg3BrWqSY1o-35" style="rounded=0;orthogonalLoop=1;jettySize=auto;html=1;exitX=0;exitY=0;exitDx=0;exitDy=0;entryX=1;entryY=0.5;entryDx=0;entryDy=0;" edge="1" parent="1" source="f3nVC-9VJCg3BrWqSY1o-3" target="f3nVC-9VJCg3BrWqSY1o-33">
          <mxGeometry relative="1" as="geometry" />
        </mxCell>
        <mxCell id="f3nVC-9VJCg3BrWqSY1o-36" style="edgeStyle=orthogonalEdgeStyle;rounded=0;orthogonalLoop=1;jettySize=auto;html=1;exitX=0;exitY=0.5;exitDx=0;exitDy=0;entryX=1;entryY=0.5;entryDx=0;entryDy=0;" edge="1" parent="1" source="f3nVC-9VJCg3BrWqSY1o-3" target="f3nVC-9VJCg3BrWqSY1o-32">
          <mxGeometry relative="1" as="geometry" />
        </mxCell>
        <mxCell id="f3nVC-9VJCg3BrWqSY1o-37" style="rounded=0;orthogonalLoop=1;jettySize=auto;html=1;exitX=0;exitY=1;exitDx=0;exitDy=0;entryX=1;entryY=0.5;entryDx=0;entryDy=0;" edge="1" parent="1" source="f3nVC-9VJCg3BrWqSY1o-3" target="f3nVC-9VJCg3BrWqSY1o-30">
          <mxGeometry relative="1" as="geometry" />
        </mxCell>
        <mxCell id="f3nVC-9VJCg3BrWqSY1o-39" style="edgeStyle=orthogonalEdgeStyle;rounded=0;orthogonalLoop=1;jettySize=auto;html=1;exitX=1;exitY=0.5;exitDx=0;exitDy=0;entryX=0;entryY=0.5;entryDx=0;entryDy=0;" edge="1" parent="1" source="f3nVC-9VJCg3BrWqSY1o-3" target="f3nVC-9VJCg3BrWqSY1o-31">
          <mxGeometry relative="1" as="geometry" />
        </mxCell>
        <mxCell id="f3nVC-9VJCg3BrWqSY1o-3" value="Viaggi" style="rounded=1;arcSize=10;whiteSpace=wrap;html=1;align=center;" vertex="1" parent="1">
          <mxGeometry x="470" y="80" width="100" height="40" as="geometry" />
        </mxCell>
        <mxCell id="f3nVC-9VJCg3BrWqSY1o-21" style="rounded=0;orthogonalLoop=1;jettySize=auto;html=1;exitX=0;exitY=0;exitDx=0;exitDy=0;entryX=1;entryY=0.5;entryDx=0;entryDy=0;" edge="1" parent="1" source="f3nVC-9VJCg3BrWqSY1o-4" target="f3nVC-9VJCg3BrWqSY1o-13">
          <mxGeometry relative="1" as="geometry" />
        </mxCell>
        <mxCell id="f3nVC-9VJCg3BrWqSY1o-22" style="edgeStyle=orthogonalEdgeStyle;rounded=0;orthogonalLoop=1;jettySize=auto;html=1;exitX=0;exitY=0.5;exitDx=0;exitDy=0;" edge="1" parent="1" source="f3nVC-9VJCg3BrWqSY1o-4" target="f3nVC-9VJCg3BrWqSY1o-11">
          <mxGeometry relative="1" as="geometry">
            <mxPoint x="50" y="299.79310344827593" as="targetPoint" />
          </mxGeometry>
        </mxCell>
        <mxCell id="f3nVC-9VJCg3BrWqSY1o-23" style="rounded=0;orthogonalLoop=1;jettySize=auto;html=1;exitX=0;exitY=1;exitDx=0;exitDy=0;entryX=1;entryY=0.5;entryDx=0;entryDy=0;" edge="1" parent="1" source="f3nVC-9VJCg3BrWqSY1o-4" target="f3nVC-9VJCg3BrWqSY1o-12">
          <mxGeometry relative="1" as="geometry" />
        </mxCell>
        <mxCell id="f3nVC-9VJCg3BrWqSY1o-24" style="rounded=0;orthogonalLoop=1;jettySize=auto;html=1;exitX=1;exitY=0;exitDx=0;exitDy=0;entryX=0;entryY=0.5;entryDx=0;entryDy=0;" edge="1" parent="1" source="f3nVC-9VJCg3BrWqSY1o-4" target="f3nVC-9VJCg3BrWqSY1o-18">
          <mxGeometry relative="1" as="geometry" />
        </mxCell>
        <mxCell id="f3nVC-9VJCg3BrWqSY1o-25" style="edgeStyle=orthogonalEdgeStyle;rounded=0;orthogonalLoop=1;jettySize=auto;html=1;exitX=1;exitY=0.5;exitDx=0;exitDy=0;entryX=0;entryY=0.5;entryDx=0;entryDy=0;" edge="1" parent="1" source="f3nVC-9VJCg3BrWqSY1o-4" target="f3nVC-9VJCg3BrWqSY1o-19">
          <mxGeometry relative="1" as="geometry" />
        </mxCell>
        <mxCell id="f3nVC-9VJCg3BrWqSY1o-4" value="Fermate" style="rounded=1;arcSize=10;whiteSpace=wrap;html=1;align=center;" vertex="1" parent="1">
          <mxGeometry x="90" y="280" width="100" height="40" as="geometry" />
        </mxCell>
        <mxCell id="f3nVC-9VJCg3BrWqSY1o-5" value="Id_treno" style="ellipse;whiteSpace=wrap;html=1;align=center;" vertex="1" parent="1">
          <mxGeometry x="-30" y="40" width="100" height="40" as="geometry" />
        </mxCell>
        <mxCell id="f3nVC-9VJCg3BrWqSY1o-9" value="Alimentazione" style="ellipse;whiteSpace=wrap;html=1;align=center;" vertex="1" parent="1">
          <mxGeometry x="-30" y="130" width="100" height="40" as="geometry" />
        </mxCell>
        <mxCell id="f3nVC-9VJCg3BrWqSY1o-10" style="rounded=0;orthogonalLoop=1;jettySize=auto;html=1;exitX=0;exitY=1;exitDx=0;exitDy=0;entryX=1.016;entryY=0.676;entryDx=0;entryDy=0;entryPerimeter=0;" edge="1" parent="1" source="f3nVC-9VJCg3BrWqSY1o-2" target="f3nVC-9VJCg3BrWqSY1o-9">
          <mxGeometry relative="1" as="geometry" />
        </mxCell>
        <mxCell id="f3nVC-9VJCg3BrWqSY1o-11" value="nome fermata" style="ellipse;whiteSpace=wrap;html=1;align=center;" vertex="1" parent="1">
          <mxGeometry x="-30" y="280" width="100" height="40" as="geometry" />
        </mxCell>
        <mxCell id="f3nVC-9VJCg3BrWqSY1o-12" value="stazione_partenza" style="ellipse;whiteSpace=wrap;html=1;align=center;" vertex="1" parent="1">
          <mxGeometry x="-30" y="330" width="100" height="40" as="geometry" />
        </mxCell>
        <mxCell id="f3nVC-9VJCg3BrWqSY1o-13" value="id_fermata" style="ellipse;whiteSpace=wrap;html=1;align=center;" vertex="1" parent="1">
          <mxGeometry x="-30" y="230" width="100" height="40" as="geometry" />
        </mxCell>
        <mxCell id="f3nVC-9VJCg3BrWqSY1o-14" value="N_carrozze" style="ellipse;whiteSpace=wrap;html=1;align=center;" vertex="1" parent="1">
          <mxGeometry x="210" y="130" width="100" height="40" as="geometry" />
        </mxCell>
        <mxCell id="f3nVC-9VJCg3BrWqSY1o-15" value="Vel_max" style="ellipse;whiteSpace=wrap;html=1;align=center;" vertex="1" parent="1">
          <mxGeometry x="210" y="20" width="100" height="40" as="geometry" />
        </mxCell>
        <mxCell id="f3nVC-9VJCg3BrWqSY1o-16" style="rounded=0;orthogonalLoop=1;jettySize=auto;html=1;exitX=1;exitY=1;exitDx=0;exitDy=0;entryX=0.016;entryY=0.641;entryDx=0;entryDy=0;entryPerimeter=0;" edge="1" parent="1" source="f3nVC-9VJCg3BrWqSY1o-2" target="f3nVC-9VJCg3BrWqSY1o-14">
          <mxGeometry relative="1" as="geometry" />
        </mxCell>
        <mxCell id="f3nVC-9VJCg3BrWqSY1o-18" value="data" style="ellipse;whiteSpace=wrap;html=1;align=center;" vertex="1" parent="1">
          <mxGeometry x="200" y="230" width="100" height="40" as="geometry" />
        </mxCell>
        <mxCell id="f3nVC-9VJCg3BrWqSY1o-19" value="ora_arrivo_p" style="ellipse;whiteSpace=wrap;html=1;align=center;" vertex="1" parent="1">
          <mxGeometry x="210" y="280" width="100" height="40" as="geometry" />
        </mxCell>
        <mxCell id="f3nVC-9VJCg3BrWqSY1o-20" value="ora_arrivo_e" style="ellipse;whiteSpace=wrap;html=1;align=center;" vertex="1" parent="1">
          <mxGeometry x="210" y="330" width="100" height="40" as="geometry" />
        </mxCell>
        <mxCell id="f3nVC-9VJCg3BrWqSY1o-27" style="rounded=0;orthogonalLoop=1;jettySize=auto;html=1;exitX=1;exitY=1;exitDx=0;exitDy=0;entryX=0.006;entryY=0.641;entryDx=0;entryDy=0;entryPerimeter=0;" edge="1" parent="1" source="f3nVC-9VJCg3BrWqSY1o-4" target="f3nVC-9VJCg3BrWqSY1o-20">
          <mxGeometry relative="1" as="geometry" />
        </mxCell>
        <mxCell id="f3nVC-9VJCg3BrWqSY1o-29" value="ora_partenza" style="ellipse;whiteSpace=wrap;html=1;align=center;" vertex="1" parent="1">
          <mxGeometry x="480" y="140" width="100" height="40" as="geometry" />
        </mxCell>
        <mxCell id="f3nVC-9VJCg3BrWqSY1o-30" value="ora_arrivo" style="ellipse;whiteSpace=wrap;html=1;align=center;" vertex="1" parent="1">
          <mxGeometry x="350" y="140" width="100" height="40" as="geometry" />
        </mxCell>
        <mxCell id="f3nVC-9VJCg3BrWqSY1o-31" value="stazione_arrivo" style="ellipse;whiteSpace=wrap;html=1;align=center;" vertex="1" parent="1">
          <mxGeometry x="600" y="80" width="100" height="40" as="geometry" />
        </mxCell>
        <mxCell id="f3nVC-9VJCg3BrWqSY1o-32" value="stazione_partenza" style="ellipse;whiteSpace=wrap;html=1;align=center;" vertex="1" parent="1">
          <mxGeometry x="350" y="80" width="100" height="40" as="geometry" />
        </mxCell>
        <mxCell id="f3nVC-9VJCg3BrWqSY1o-33" value="id_vaiggio" style="ellipse;whiteSpace=wrap;html=1;align=center;" vertex="1" parent="1">
          <mxGeometry x="350" y="20" width="100" height="40" as="geometry" />
        </mxCell>
        <mxCell id="f3nVC-9VJCg3BrWqSY1o-40" style="edgeStyle=orthogonalEdgeStyle;rounded=0;orthogonalLoop=1;jettySize=auto;html=1;exitX=0.5;exitY=1;exitDx=0;exitDy=0;entryX=0.406;entryY=0.012;entryDx=0;entryDy=0;entryPerimeter=0;" edge="1" parent="1" source="f3nVC-9VJCg3BrWqSY1o-3" target="f3nVC-9VJCg3BrWqSY1o-29">
          <mxGeometry relative="1" as="geometry" />
        </mxCell>
        <mxCell id="f3nVC-9VJCg3BrWqSY1o-52" style="rounded=0;orthogonalLoop=1;jettySize=auto;html=1;exitX=1;exitY=0.5;exitDx=0;exitDy=0;entryX=0;entryY=0.5;entryDx=0;entryDy=0;shape=link;width=-0.3448275862068968;" edge="1" parent="1" source="f3nVC-9VJCg3BrWqSY1o-45" target="f3nVC-9VJCg3BrWqSY1o-50">
          <mxGeometry relative="1" as="geometry" />
        </mxCell>
        <mxCell id="f3nVC-9VJCg3BrWqSY1o-60" style="edgeStyle=orthogonalEdgeStyle;rounded=0;orthogonalLoop=1;jettySize=auto;html=1;exitX=0.5;exitY=1;exitDx=0;exitDy=0;entryX=0.5;entryY=0;entryDx=0;entryDy=0;" edge="1" parent="1" source="f3nVC-9VJCg3BrWqSY1o-45" target="f3nVC-9VJCg3BrWqSY1o-47">
          <mxGeometry relative="1" as="geometry" />
        </mxCell>
        <mxCell id="f3nVC-9VJCg3BrWqSY1o-45" value="Treni" style="rounded=1;arcSize=10;whiteSpace=wrap;html=1;align=center;" vertex="1" parent="1">
          <mxGeometry x="80" y="470" width="100" height="40" as="geometry" />
        </mxCell>
        <mxCell id="f3nVC-9VJCg3BrWqSY1o-46" value="Viaggi" style="rounded=1;arcSize=10;whiteSpace=wrap;html=1;align=center;" vertex="1" parent="1">
          <mxGeometry x="414" y="470" width="100" height="40" as="geometry" />
        </mxCell>
        <mxCell id="f3nVC-9VJCg3BrWqSY1o-47" value="Fermate" style="rounded=1;arcSize=10;whiteSpace=wrap;html=1;align=center;" vertex="1" parent="1">
          <mxGeometry x="80" y="585" width="100" height="40" as="geometry" />
        </mxCell>
        <mxCell id="f3nVC-9VJCg3BrWqSY1o-54" style="rounded=0;orthogonalLoop=1;jettySize=auto;html=1;exitX=1;exitY=0.5;exitDx=0;exitDy=0;shape=link;width=-0.3448275862068968;" edge="1" parent="1" source="f3nVC-9VJCg3BrWqSY1o-50" target="f3nVC-9VJCg3BrWqSY1o-46">
          <mxGeometry relative="1" as="geometry" />
        </mxCell>
        <mxCell id="f3nVC-9VJCg3BrWqSY1o-50" value="effettuano" style="shape=rhombus;perimeter=rhombusPerimeter;whiteSpace=wrap;html=1;align=center;" vertex="1" parent="1">
          <mxGeometry x="230" y="460" width="120" height="60" as="geometry" />
        </mxCell>
        <mxCell id="f3nVC-9VJCg3BrWqSY1o-58" value="N" style="text;html=1;align=center;verticalAlign=middle;resizable=0;points=[];autosize=1;strokeColor=none;fillColor=none;" vertex="1" parent="1">
          <mxGeometry x="185" y="458" width="30" height="30" as="geometry" />
        </mxCell>
        <mxCell id="f3nVC-9VJCg3BrWqSY1o-59" value="N" style="text;html=1;align=center;verticalAlign=middle;resizable=0;points=[];autosize=1;strokeColor=none;fillColor=none;" vertex="1" parent="1">
          <mxGeometry x="385" y="468" width="30" height="30" as="geometry" />
        </mxCell>
        <mxCell id="f3nVC-9VJCg3BrWqSY1o-61" value="N" style="text;html=1;align=center;verticalAlign=middle;resizable=0;points=[];autosize=1;strokeColor=none;fillColor=none;" vertex="1" parent="1">
          <mxGeometry x="125" y="510" width="30" height="30" as="geometry" />
        </mxCell>
        <mxCell id="f3nVC-9VJCg3BrWqSY1o-63" value="N" style="text;html=1;align=center;verticalAlign=middle;resizable=0;points=[];autosize=1;strokeColor=none;fillColor=none;" vertex="1" parent="1">
          <mxGeometry x="125" y="555" width="30" height="30" as="geometry" />
        </mxCell>
        <mxCell id="f3nVC-9VJCg3BrWqSY1o-65" value="categoria" style="ellipse;whiteSpace=wrap;html=1;align=center;" vertex="1" parent="1">
          <mxGeometry x="230" y="80" width="100" height="40" as="geometry" />
        </mxCell>
      </root>
    </mxGraphModel>
  </diagram>
</mxfile>
